<svg id="bear" width="243" height="234" viewBox="0 0 243 234">
  <g id="left-ear">
    <circle cx="36.9" cy="38.2" r="34.6" fill="#673200"/>
    <circle cx="39.4" cy="47" r="14.8" fill="#ffaaca"/>
  </g>
  <g id="right-ear">
    <circle cx="205.1" cy="38.2" r="34.6" fill="#673200"/>
    <circle cx="202.6" cy="47" r="14.8" fill="#ffaaca"/>
  </g>
  <g id="face">
    <circle cx="121" cy="122.2" r="108.1" fill="#673200"/>
    <circle cx="121" cy="161.7" r="42.3" fill="#c65b00"/>
    <path fill="#c65b00" d="M167 24.4a65.6 65.6 0 0 0 61 113.3 108.2 108.2 0 0 0-61-113.3z"/>
    <path fill="#c65b00" d="M12.9 122.2a109 109 0 0 0 1.1 15.4A65.6 65.6 0 0 0 75 24.4a108.1 108.1 0 0 0-62.1 97.8z"/>
    <path fill="none" stroke="#000" stroke-linecap="round" stroke-linejoin="round" stroke-width="3" d="M94.2 176.1a37.2 37.2 0 0 0 52.7 0"/>
    <circle id="_Ellipse_" cx="121" cy="127.1" r="13" fill="#ffaaca" data-name="&lt;Ellipse&gt;"/>
  </g>
  <circle id="left-eye" cx="77.8" cy="95.5" r="9.3"/>
  <circle id="right-eye" cx="164.2" cy="95.5" r="9.3"/>
</svg>
